<?xml version="1.0"?>
<svg xmlns="http://www.w3.org/2000/svg" id="Layer_1" data-name="Layer 1" viewBox="0 0 512 512" width="512" height="512"><title>Car 4</title><path d="M456,207H421.943a171.981,171.981,0,0,0-60.121-49.137A178.352,178.352,0,0,0,283.163,139H258.417a178.292,178.292,0,0,0-125.932,52.84l-29.948,30.434L70.05,224.45A54.786,54.786,0,0,0,19,279v48.061A6.95,6.95,0,0,0,26,334H75.355a49.157,49.157,0,0,0,95.986,0h164.3a49.157,49.157,0,0,0,95.986,0h33.927A27.426,27.426,0,0,0,493,306.614V243.573A36.679,36.679,0,0,0,456,207ZM350,167.69v51.278A3.234,3.234,0,0,1,346.593,222H262V153h21.163C306.031,153,329,158.348,350,167.69Zm-207.6,34.1A163.068,163.068,0,0,1,248,153.766V222H122.4Zm-19.055,156.79a35.167,35.167,0,1,1,35.166-35.166A35.206,35.206,0,0,1,123.348,358.581Zm260.288,0A35.167,35.167,0,1,1,418.8,323.415,35.206,35.206,0,0,1,383.636,358.581ZM465.556,320H432.675c-1.733-25-23.058-45.811-49.039-45.811S336.329,295,334.6,320H172.387c-1.733-25-23.058-45.811-49.039-45.811S76.041,295,74.309,320H33V279a40.794,40.794,0,0,1,37.963-40.621L105.881,236H346.593A17.239,17.239,0,0,0,364,218.968V174.779a164.634,164.634,0,0,1,49.033,43.242A7.04,7.04,0,0,0,418.514,221H456a22.494,22.494,0,0,1,20.711,13H454.632a21,21,0,1,0,0,42H479v30.614A13.41,13.41,0,0,1,465.556,320ZM479,248v14H454.632a7,7,0,1,1,0-14Z"/></svg>
