<?xml version="1.0" encoding="iso-8859-1"?>
<!-- Generator: Adobe Illustrator 19.0.0, SVG Export Plug-In . SVG Version: 6.00 Build 0)  -->
<svg version="1.1" id="Capa_1" xmlns="http://www.w3.org/2000/svg" xmlns:xlink="http://www.w3.org/1999/xlink" x="0px" y="0px"
	 viewBox="0 0 436.907 436.907" style="enable-background:new 0 0 436.907 436.907;" xml:space="preserve">
<circle style="fill:#E05B49;" cx="218.453" cy="218.453" r="218.453"/>
<g style="opacity:0.1;">
	<path d="M274.875,90.453H124.722v256l90.368,90.368c1.124,0.017,2.235,0.085,3.363,0.085c111.733,0,203.811-83.903,216.819-192.13
		L312.185,121.689L274.875,90.453z"/>
</g>
<polyline style="fill:#EBF0F3;" points="312.185,121.689 312.185,346.453 124.722,346.453 124.722,90.453 274.875,90.453 "/>
<polygon style="fill:#64798A;" points="274.875,90.453 274.875,121.689 312.185,121.689 "/>
<g>
	<rect x="142.804" y="139.913" style="fill:#D5D6DB;" width="116.087" height="12.803"/>
	<rect x="142.804" y="168.926" style="fill:#D5D6DB;" width="116.087" height="12.803"/>
	<rect x="142.804" y="197.939" style="fill:#D5D6DB;" width="148.992" height="12.803"/>
	<rect x="142.804" y="226.953" style="fill:#D5D6DB;" width="148.992" height="12.803"/>
	<rect x="142.804" y="255.966" style="fill:#D5D6DB;" width="148.992" height="12.803"/>
	<rect x="142.804" y="284.979" style="fill:#D5D6DB;" width="148.992" height="12.803"/>
	<rect x="142.804" y="313.993" style="fill:#D5D6DB;" width="148.992" height="12.803"/>
</g>
<g>
</g>
<g>
</g>
<g>
</g>
<g>
</g>
<g>
</g>
<g>
</g>
<g>
</g>
<g>
</g>
<g>
</g>
<g>
</g>
<g>
</g>
<g>
</g>
<g>
</g>
<g>
</g>
<g>
</g>
</svg>
